HIERARCHY
ROOT Hips
{
 OFFSET 0.000000 0.000000 0.000000
 CHANNELS 6 Xposition Yposition Zposition Yrotation Xrotation Zrotation
 JOINT Chest
 {
  OFFSET 0.000000 9.585900 0.002600
  CHANNELS 3 Yrotation Xrotation Zrotation
  JOINT Chest2
  {
   OFFSET 0.000000 9.601200 -0.005300
   CHANNELS 3 Yrotation Xrotation Zrotation
   JOINT Chest3
   {
    OFFSET 0.000000 9.561800 0.000000
    CHANNELS 3 Yrotation Xrotation Zrotation
    JOINT Chest4
    {
     OFFSET 0.000000 9.552100 0.000000
     CHANNELS 3 Yrotation Xrotation Zrotation
     JOINT Neck
     {
      OFFSET 0.000000 14.453000 0.000000
      CHANNELS 3 Yrotation Xrotation Zrotation
      JOINT Head
      {
       OFFSET 0.000000 8.936500 -0.011300
       CHANNELS 3 Yrotation Xrotation Zrotation
       End Site
       {
        OFFSET 0.000000 17.073600 -0.006000
       }
      }
     }
     JOINT RightCollar
     {
      OFFSET -2.921100 9.558500 0.000000
      CHANNELS 3 Yrotation Xrotation Zrotation
      JOINT RightShoulder
      {
       OFFSET -13.519700 0.000000 0.000000
       CHANNELS 3 Yrotation Xrotation Zrotation
       JOINT RightElbow
       {
        OFFSET 0.000000 -29.696600 0.000000
        CHANNELS 3 Yrotation Xrotation Zrotation
        JOINT RightWrist
        {
         OFFSET 0.000000 -24.004700 0.000000
         CHANNELS 3 Yrotation Xrotation Zrotation
         End Site
         {
          OFFSET 0.000000 -17.728500 0.000000
         }
        }
       }
      }
     }
     JOINT LeftCollar
     {
      OFFSET 2.921100 9.558500 0.000000
      CHANNELS 3 Yrotation Xrotation Zrotation
      JOINT LeftShoulder
      {
       OFFSET 13.519700 0.000000 0.000000
       CHANNELS 3 Yrotation Xrotation Zrotation
       JOINT LeftElbow
       {
        OFFSET 0.000000 -29.696600 0.000000
        CHANNELS 3 Yrotation Xrotation Zrotation
        JOINT LeftWrist
        {
         OFFSET 0.000000 -24.004700 0.000000
         CHANNELS 3 Yrotation Xrotation Zrotation
         End Site
         {
          OFFSET 0.000000 -17.728500 0.000000
         }
        }
       }
      }
     }
    }
   }
  }
 }
 JOINT RightHip
 {
  OFFSET -7.771700 -0.012900 -0.001300
  CHANNELS 3 Yrotation Xrotation Zrotation
  JOINT RightKnee
  {
   OFFSET 0.000000 -40.869800 0.001200
   CHANNELS 3 Yrotation Xrotation Zrotation
   JOINT RightAnkle
   {
    OFFSET 0.000000 -39.717900 0.002100
    CHANNELS 3 Yrotation Xrotation Zrotation
    JOINT RightToe
    {
     OFFSET 0.000000 -4.965400 11.033500
     CHANNELS 3 Yrotation Xrotation Zrotation
     End Site
     {
      OFFSET 0.000000 -1.423100 5.872300
     }
    }
   }
  }
 }
 JOINT LeftHip
 {
  OFFSET 7.771700 -0.012900 -0.001300
  CHANNELS 3 Yrotation Xrotation Zrotation
  JOINT LeftKnee
  {
   OFFSET 0.000000 -40.869800 0.001200
   CHANNELS 3 Yrotation Xrotation Zrotation
   JOINT LeftAnkle
   {
    OFFSET 0.000000 -39.717900 0.002100
    CHANNELS 3 Yrotation Xrotation Zrotation
    JOINT LeftToe
    {
     OFFSET 0.000000 -4.965400 11.033500
     CHANNELS 3 Yrotation Xrotation Zrotation
     End Site
     {
      OFFSET 0.000000 -1.423100 5.872300
     }
    }
   }
  }
 }
}
MOTION
Frames: 12
Frame Time: 0.008333
-25.230949 54.840796 38.769156 -178.639356 -31.137808 -11.438422 -0.754094 11.920449 5.694695 -0.454694 6.994884 1.947720 -0.494114 8.774075 2.426978 -0.465876 6.963444 1.963159 6.958384 21.825852 -0.541871 7.667306 -2.086754 -2.217872 1.804272 2.899533 -2.337799 -17.316951 -7.931548 7.566951 12.709778 -75.724837 2.661254 8.658142 -9.187443 -17.286135 -7.935832 3.882704 -3.010640 5.910228 -1.404024 -3.014207 -76.085526 -74.171277 82.375000 13.348526 -15.787463 2.558978 -18.116700 -35.347391 5.099100 33.787059 83.999802 28.647771 -0.929451 -16.639056 3.725830 -1.054755 2.175706 -0.494944 -16.040087 -46.518533 16.321916 174.899173 79.705947 169.831384 -1.810403 -17.260924 2.015856 -0.241161 -1.143219 -0.105155
-25.227729 54.850712 38.766748 -178.646827 -31.123540 -11.450714 -0.778353 11.896854 5.700421 -0.430411 7.002339 1.952481 -0.516519 8.746789 2.434640 -0.466144 6.953883 1.964724 7.025639 21.817653 -0.503898 7.760505 -2.105194 -2.180586 1.823993 2.937195 -2.348246 -17.285271 -7.960234 7.591658 11.996289 -75.705466 3.348920 8.644510 -9.121786 -17.280512 -7.935245 3.898932 -3.015068 5.902321 -1.383354 -3.025246 -76.098324 -73.966910 82.372377 13.310861 -15.871040 2.527871 -18.154509 -35.357436 5.123984 33.739747 84.007250 28.602175 -0.912183 -16.638674 3.706099 -1.044170 2.172910 -0.489681 -16.056757 -46.532894 16.337043 174.806955 79.695085 169.759452 -1.810166 -17.262890 1.997710 -0.242898 -1.147357 -0.107337
-25.229381 54.857190 38.767159 -178.625612 -31.081538 -11.448489 -0.821101 11.854122 5.682566 -0.434199 6.991345 1.955472 -0.544345 8.705094 2.445978 -0.451725 6.975482 1.956964 7.097476 21.805019 -0.462608 7.858698 -2.131175 -2.139367 1.835264 2.952586 -2.340819 -17.242897 -7.977180 7.591759 11.381846 -75.677699 3.950370 8.635342 -9.036506 -17.281321 -7.942144 3.921219 -3.014438 5.850077 -1.370684 -3.023910 -76.054213 -73.777291 82.362568 13.266214 -15.964554 2.484943 -18.203292 -35.397250 5.122837 33.735941 84.013802 28.593307 -0.893636 -16.653068 3.690492 -1.027889 2.182882 -0.481836 -16.102137 -46.611442 16.319601 174.649615 79.669531 169.583171 -1.689914 -17.130930 2.034085 -0.360347 -1.264912 -0.166119
-25.226275 54.865847 38.764368 -178.637169 -31.070775 -11.458417 -0.821477 11.838519 5.694362 -0.439625 6.979641 1.960269 -0.540931 8.707652 2.444668 -0.467945 6.952950 1.964341 7.177492 21.789220 -0.418528 7.938170 -2.144320 -2.110021 1.833103 2.944201 -2.309468 -17.114746 -8.066643 7.607781 11.005591 -75.571725 4.242951 8.640701 -8.922602 -17.291772 -7.947156 3.949577 -3.011203 5.794614 -1.362578 -3.021247 -76.018742 -73.589637 82.366831 13.221165 -16.061249 2.432637 -18.228300 -35.402041 5.150330 33.776924 84.012996 28.622324 -0.869129 -16.664506 3.685175 -1.031792 2.187779 -0.478613 -16.118927 -46.621850 16.336284 174.597994 79.658902 169.542456 -1.682710 -17.134407 2.023573 -0.364021 -1.269225 -0.170325
-25.226568 54.873055 38.761269 -178.647724 -31.059873 -11.446886 -0.819934 11.825003 5.686509 -0.470853 6.956574 1.958709 -0.520804 8.719167 2.445071 -0.482862 6.934385 1.971301 7.263949 21.771608 -0.372823 8.024520 -2.158960 -2.080415 1.841052 2.956301 -2.298449 -17.031710 -8.138916 7.620316 10.751478 -75.510531 4.459837 8.662512 -8.792591 -17.310886 -7.978310 3.980964 -2.984040 5.783492 -1.354849 -3.044861 -76.021575 -73.405115 82.388193 13.180997 -16.154515 2.372597 -18.235231 -35.414591 5.148170 33.824911 84.014599 28.670215 -0.873449 -16.684388 3.672424 -1.021140 2.202356 -0.470794 -16.135972 -46.658738 16.298876 174.352004 79.631947 169.277891 -1.537799 -17.046032 2.050383 -0.501361 -1.358860 -0.232262
-25.230154 54.881846 38.752842 -178.688619 -31.090007 -11.398211 -0.799939 11.844408 5.650446 -0.461184 6.957725 1.962903 -0.539998 8.699242 2.449322 -0.488809 6.929504 1.975826 7.355500 21.754987 -0.326992 8.116767 -2.171978 -2.051860 1.848301 2.965734 -2.288656 -16.985431 -8.160396 7.605224 10.639009 -75.504890 4.589040 8.692445 -8.672089 -17.338948 -7.966935 4.010051 -2.992512 5.732136 -1.345610 -3.026070 -76.034969 -73.237925 82.412852 13.145802 -16.240892 2.302393 -18.182195 -35.405277 5.102500 33.811117 84.026617 28.670773 -0.898349 -16.701445 3.651081 -0.973562 2.213600 -0.454025 -16.082403 -46.672810 16.194782 174.017964 79.574059 168.886729 -1.294083 -16.955981 2.133947 -0.742164 -1.479091 -0.340211
-25.231445 54.890293 38.744440 -178.635110 -31.104694 -11.409424 -0.873746 11.863571 5.622011 -0.452414 6.952426 1.968089 -0.545880 8.690533 2.452428 -0.488972 6.931964 1.978011 7.408416 21.754538 -0.308780 8.251270 -2.201544 -2.010509 1.854481 2.969884 -2.276844 -16.903614 -8.234208 7.602970 10.658653 -75.457597 4.543720 8.732006 -8.569318 -17.375405 -7.981638 4.037874 -2.984479 5.707107 -1.339457 -3.018328 -76.042445 -73.094868 82.427110 13.112883 -16.317350 2.218458 -18.216182 -35.388121 5.073510 33.846176 84.028319 28.706826 -0.938653 -16.666999 3.637223 -0.927736 2.177899 -0.431531 -16.111072 -46.663157 16.147702 173.936268 79.554641 168.803538 -1.328870 -16.944444 2.126617 -0.707479 -1.498208 -0.323276
-25.224569 54.896348 38.741831 -178.658095 -31.095865 -11.426735 -0.867570 11.851605 5.645565 -0.479199 6.937567 1.972603 -0.531977 8.690955 2.453399 -0.470929 6.944225 1.969465 7.451937 21.740914 -0.282059 8.390558 -2.221152 -1.969163 1.851054 2.963139 -2.256567 -16.817694 -8.312075 7.594684 10.737313 -75.416472 4.435192 8.786044 -8.479464 -17.412268 -8.010375 4.054614 -2.966814 5.714671 -1.341634 -3.026541 -76.048183 -72.953264 82.411720 13.081134 -16.379112 2.121984 -18.225355 -35.392923 5.114470 33.830136 84.033127 28.699080 -0.948560 -16.667837 3.634555 -0.912406 2.178504 -0.434856 -16.133177 -46.669799 16.179349 173.913268 79.540117 168.810341 -1.445814 -16.953987 2.147689 -0.703046 -1.495077 -0.329038
-25.212918 54.898558 38.746495 -178.718671 -31.044715 -11.448902 -0.838333 11.792545 5.692206 -0.479291 6.931394 1.975996 -0.562461 8.666508 2.465287 -0.449281 6.955568 1.964307 7.551986 21.732907 -0.235502 8.484426 -2.217416 -1.942534 1.867963 2.979132 -2.257622 -16.744039 -8.374565 7.587966 10.857241 -75.397273 4.299633 8.853004 -8.394600 -17.432807 -8.009271 4.082656 -2.975654 5.680054 -1.322874 -2.990955 -76.044830 -72.859778 82.422542 13.054086 -16.424232 2.019929 -18.238327 -35.435909 5.195625 33.879452 84.038819 28.758126 -0.892063 -16.722306 3.631854 -0.989479 2.223022 -0.457516 -16.166377 -46.706828 16.306628 174.095535 79.552635 169.048615 -1.761385 -16.973625 2.211967 -0.695109 -1.458901 -0.330103
-25.197959 54.903284 38.747792 -178.703512 -31.007109 -11.526611 -0.853719 11.759648 5.759853 -0.481326 6.927964 1.977150 -0.565040 8.662275 2.466695 -0.496630 6.915002 1.982278 7.725075 21.730563 -0.157734 8.524918 -2.191569 -1.935487 1.922499 3.029010 -2.279245 -16.674374 -8.436040 7.592580 10.947509 -75.374982 4.177064 8.937299 -8.325572 -17.407311 -7.961614 4.132254 -3.006796 5.648002 -1.303078 -2.954405 -76.041641 -72.761048 82.421441 13.032373 -16.457501 1.918181 -18.321102 -35.445521 5.284797 33.951673 84.035059 28.839750 -0.853962 -16.717969 3.618503 -1.024712 2.214011 -0.465443 -16.254896 -46.685725 16.481742 174.537392 79.585886 169.598460 -2.336209 -17.132954 2.174049 -0.401582 -1.287607 -0.200892
-25.191751 54.908650 38.744611 -178.709312 -31.001129 -11.536492 -0.857217 11.753121 5.768345 -0.483434 6.924281 1.978027 -0.567638 8.657628 2.467835 -0.512869 6.900753 1.991039 7.822312 21.709391 -0.105306 8.592791 -2.190320 -1.918896 1.941201 3.043725 -2.267763 -16.589454 -8.489640 7.573293 10.954600 -75.337518 4.104644 9.045106 -8.283944 -17.321992 -7.961930 4.163934 -3.006960 5.666850 -1.305370 -2.965372 -76.022346 -72.627863 82.376711 13.005193 -16.479825 1.816126 -18.338208 -35.443789 5.303388 33.953051 84.036064 28.859933 -0.901219 -16.740301 3.608697 -0.971554 2.234567 -0.466449 -16.285316 -46.690874 16.507656 174.541047 79.574274 169.611049 -2.468929 -17.126861 2.212705 -0.410435 -1.293662 -0.207805
-25.192449 54.913474 38.739723 -178.737964 -31.008850 -11.488650 -0.857560 11.753908 5.729403 -0.487997 6.918488 1.980101 -0.573092 8.650449 2.470471 -0.509400 6.901703 1.990170 7.887173 21.682548 -0.070614 8.664826 -2.210058 -1.902430 1.952659 3.051112 -2.229813 -16.503424 -8.541792 7.529934 11.108884 -75.343844 3.937758 9.119036 -8.191396 -17.246173 -7.970386 4.183208 -3.003142 5.661623 -1.283358 -2.941686 -76.005699 -72.526378 82.366227 12.965008 -16.487184 1.718047 -18.291698 -35.450796 5.262978 33.998151 84.037937 28.910467 -0.914523 -16.772858 3.597062 -1.033014 2.260444 -0.458859 -16.282325 -46.726805 16.427619 174.211187 79.531874 169.216448 -2.276051 -16.981739 2.312076 -0.659097 -1.441483 -0.326314
